# xmcd
#
# Track frame offsets:
#	150
#	19335
#	44328
#	62713
#	82064
#	101915
#	125232
#	145184
#	166257
#	188092
#	209279
#	233623
#	251859
#	267882
#	282865
#	327321
#
# Disc length: 4599 seconds
#
# Revision: 1
# Processed by: cddbd v1.4PL0 Copyright (c) Steve Scherf et al.
# Submitted via: EasyCDDAExtractor 5.0.6
#
DISCID=f111f510
DTITLE=Eros Ramazzotti - Love Ballads
DYEAR=2002
DGENRE=Blues
TTITLE0=Piu Che Puoi (feat. Cher)
TTITLE1=L'Aurora
TTITLE2=Adesso Tu
TTITLE3=Nell' Azzurrita
TTITLE4=E Ancor Mi Chiedo
TTITLE5=Quasi Amore
TTITLE6=Favola
TTITLE7=Un Angelo Non E
TTITLE8=Casa Della Vita (feat. Tina Turner)
TTITLE9=Un' Ultra Te
TTITLE10=Se Bastasse Una Canzone
TTITLE11=Fuoco Nel Fuoco
TTITLE12=Memorie
TTITLE13=Occhi Di Speranza
TTITLE14=Musica E' (feat. Andrea Bocelli)
TTITLE15=Per Me Per Sempre
EXTD=
EXTT0=
EXTT1=
EXTT2=
EXTT3=
EXTT4=
EXTT5=
EXTT6=
EXTT7=
EXTT8=
EXTT9=
EXTT10=
EXTT11=
EXTT12=
EXTT13=
EXTT14=
EXTT15=
PLAYORDER=
